
<global>
amp_veltrack=0
ampeg_attack=0.01
ampeg_release=0.85
</global>

<group>
group_label=PP
xf_cccurve=gain
xfin_hicc1=63
xfout_hicc1=127
xfout_locc1=64

<region>
hikey=B3
hivel=127
lokey=A#3
loop_end=280421
loop_mode=loop_continuous
loop_start=94761
loop_xfade=35237
lovel=1
offset=2767
pitch_keycenter=A#3
sample=Tenors_Ahh_Marcato_PP_A#3.opus
tune=+43
</region>

<region>
hikey=E5
hivel=127
lokey=A#4
loop_end=278857
loop_mode=loop_continuous
loop_start=94233
loop_xfade=35040
lovel=1
offset=644
pitch_keycenter=A#4
sample=Tenors_Ahh_Marcato_PP_A#4.opus
tune=+35
</region>

<region>
hikey=C#3
hivel=127
lokey=F2
loop_end=280421
loop_mode=loop_continuous
loop_start=94761
loop_xfade=35237
lovel=1
offset=2022
pitch_keycenter=C3
sample=Tenors_Ahh_Marcato_PP_C3.opus
tune=+28
</region>

<region>
hikey=C#4
hivel=127
lokey=C4
loop_end=280421
loop_mode=loop_continuous
loop_start=94761
loop_xfade=35237
lovel=1
offset=2103
sample=Tenors_Ahh_Marcato_PP_C4.opus
tune=+30
</region>

<region>
hikey=D#3
hivel=127
lokey=D3
loop_end=280421
loop_mode=loop_continuous
loop_start=94761
loop_xfade=35237
lovel=1
offset=5215
pitch_keycenter=D3
sample=Tenors_Ahh_Marcato_PP_D3.opus
tune=+45
</region>

<region>
hikey=D#4
hivel=127
lokey=D4
loop_end=280421
loop_mode=loop_continuous
loop_start=94761
loop_xfade=35237
lovel=1
offset=531
pitch_keycenter=D4
sample=Tenors_Ahh_Marcato_PP_D4.opus
tune=+35
</region>

<region>
hikey=F3
hivel=127
lokey=E3
loop_end=280421
loop_mode=loop_continuous
loop_start=94761
loop_xfade=35237
lovel=1
offset=4322
pitch_keycenter=E3
sample=Tenors_Ahh_Marcato_PP_E3.opus
tune=+37
</region>

<region>
hikey=F4
hivel=127
lokey=E4
loop_end=280421
loop_mode=loop_continuous
loop_start=94761
loop_xfade=35237
lovel=1
offset=3978
pitch_keycenter=E4
sample=Tenors_Ahh_Marcato_PP_E4.opus
tune=+14
</region>

<region>
hikey=G3
hivel=127
lokey=F#3
loop_end=280421
loop_mode=loop_continuous
loop_start=94761
loop_xfade=35237
lovel=1
offset=416
pitch_keycenter=F#3
sample=Tenors_Ahh_Marcato_PP_F#3.opus
tune=+32
</region>

<region>
hikey=G4
hivel=127
lokey=F#4
loop_end=280076
loop_mode=loop_continuous
loop_start=94645
loop_xfade=35193
lovel=1
offset=4063
pitch_keycenter=F#4
sample=Tenors_Ahh_Marcato_PP_F#4.opus
tune=+34
</region>

<region>
hikey=A3
hivel=127
lokey=G#3
loop_end=280421
loop_mode=loop_continuous
loop_start=94761
loop_xfade=35237
lovel=1
offset=4005
pitch_keycenter=G#3
sample=Tenors_Ahh_Marcato_PP_G#3.opus
tune=+34
</region>

<region>
hikey=A4
hivel=127
lokey=G#4
loop_end=276794
loop_mode=loop_continuous
loop_start=93536
loop_xfade=34781
lovel=1
offset=1166
pitch_keycenter=G#4
sample=Tenors_Ahh_Marcato_PP_G#4.opus
tune=+30
</region>
</group>

<group>
group_label=FF
xf_cccurve=gain
xfin_hicc1=127
xfin_locc1=64
xfout_hicc1=127
xfout_locc1=127

<region>
hikey=B3
hivel=127
lokey=A#3
loop_end=279948
loop_mode=loop_continuous
loop_start=94602
loop_xfade=35177
lovel=1
offset=1352
pitch_keycenter=A#3
sample=Tenors_Ahh_Marcato_FF_A#3.opus
tune=+57
</region>

<region>
hikey=E5
hivel=127
lokey=A#4
loop_end=275910
loop_mode=loop_continuous
loop_start=93237
loop_xfade=34670
lovel=1
offset=2466
pitch_keycenter=A#4
sample=Tenors_Ahh_Marcato_FF_A#4.opus
tune=+46
</region>

<region>
hikey=C#3
hivel=127
lokey=F2
loop_end=279712
loop_mode=loop_continuous
loop_start=94522
loop_xfade=35147
lovel=1
offset=2841
pitch_keycenter=C3
sample=Tenors_Ahh_Marcato_FF_C3.opus
tune=+15
</region>

<region>
hikey=C#4
hivel=127
lokey=C4
loop_end=279287
loop_mode=loop_continuous
loop_start=94378
loop_xfade=35094
lovel=1
offset=1990
sample=Tenors_Ahh_Marcato_FF_C4.opus
tune=+41
</region>

<region>
hikey=D#3
hivel=127
lokey=D3
loop_end=280421
loop_mode=loop_continuous
loop_start=94761
loop_xfade=35237
lovel=1
offset=307
pitch_keycenter=D3
sample=Tenors_Ahh_Marcato_FF_D3.opus
tune=+25
</region>

<region>
hikey=D#4
hivel=127
lokey=D4
loop_end=280421
loop_mode=loop_continuous
loop_start=94761
loop_xfade=35237
lovel=1
pitch_keycenter=D4
sample=Tenors_Ahh_Marcato_FF_D4.opus
tune=+42
</region>

<region>
hikey=F3
hivel=127
lokey=E3
loop_end=278890
loop_mode=loop_continuous
loop_start=94244
loop_xfade=35044
lovel=1
offset=1244
pitch_keycenter=E3
sample=Tenors_Ahh_Marcato_FF_E3.opus
tune=+35
</region>

<region>
hikey=F4
hivel=127
lokey=E4
loop_end=279791
loop_mode=loop_continuous
loop_start=94549
loop_xfade=35157
lovel=1
offset=1543
pitch_keycenter=E4
sample=Tenors_Ahh_Marcato_FF_E4.opus
tune=+46
</region>

<region>
hikey=G3
hivel=127
lokey=F#3
loop_end=280421
loop_mode=loop_continuous
loop_start=94761
loop_xfade=35237
lovel=1
pitch_keycenter=F#3
sample=Tenors_Ahh_Marcato_FF_F#3.opus
tune=+59
</region>

<region>
hikey=G4
hivel=127
lokey=F#4
loop_end=280421
loop_mode=loop_continuous
loop_start=94761
loop_xfade=35237
lovel=1
offset=1921
pitch_keycenter=F#4
sample=Tenors_Ahh_Marcato_FF_F#4.opus
tune=+60
</region>

<region>
hikey=A3
hivel=127
lokey=G#3
loop_end=280421
loop_mode=loop_continuous
loop_start=94761
loop_xfade=35237
lovel=1
offset=1628
pitch_keycenter=G#3
sample=Tenors_Ahh_Marcato_FF_G#3.opus
tune=+32
</region>

<region>
hikey=A4
hivel=127
lokey=G#4
loop_end=280162
loop_mode=loop_continuous
loop_start=94674
loop_xfade=35204
lovel=1
offset=1909
pitch_keycenter=G#4
sample=Tenors_Ahh_Marcato_FF_G#4.opus
tune=+74
</region>
</group>